<svg width="32" height="32" viewBox="0 0 32 32" fill="none" xmlns="http://www.w3.org/2000/svg">
<path d="M21.3333 5.33341H24C24.7072 5.33341 25.3855 5.61437 25.8856 6.11446C26.3857 6.61456 26.6667 7.29284 26.6667 8.00008V26.6667C26.6667 27.374 26.3857 28.0523 25.8856 28.5524C25.3855 29.0525 24.7072 29.3334 24 29.3334H8C7.29275 29.3334 6.61448 29.0525 6.11438 28.5524C5.61428 28.0523 5.33333 27.374 5.33333 26.6667V8.00008C5.33333 7.29284 5.61428 6.61456 6.11438 6.11446C6.61448 5.61437 7.29275 5.33341 8 5.33341H10.6667M12 2.66675H20C20.7364 2.66675 21.3333 3.2637 21.3333 4.00008V6.66675C21.3333 7.40313 20.7364 8.00008 20 8.00008H12C11.2636 8.00008 10.6667 7.40313 10.6667 6.66675V4.00008C10.6667 3.2637 11.2636 2.66675 12 2.66675Z" stroke="#1E1E1E" stroke-width="3" stroke-linecap="round" stroke-linejoin="round"/>
</svg>
